<svg width="64" height="64" viewBox="0 0 64 64" fill="none" xmlns="http://www.w3.org/2000/svg">
<path d="M57 10.75H7C5.87364 10.7526 4.79417 11.2013 3.99771 11.9977C3.20126 12.7942 2.75264 13.8736 2.75 15V49C2.75264 50.1264 3.20126 51.2058 3.99771 52.0023C4.79417 52.7987 5.87364 53.2474 7 53.25H57C58.1264 53.2474 59.2058 52.7987 60.0023 52.0023C60.7987 51.2058 61.2474 50.1264 61.25 49V15C61.2474 13.8736 60.7987 12.7942 60.0023 11.9977C59.2058 11.2013 58.1264 10.7526 57 10.75ZM7 13.25H57C57.4633 13.2526 57.9069 13.4378 58.2345 13.7655C58.5622 14.0931 58.7474 14.5367 58.75 15V30.83L50.94 23.24C50.7111 23.0292 50.4112 22.9121 50.1 22.9121C49.7888 22.9121 49.4889 23.0292 49.26 23.24L36.26 34.35L30.44 28.52C30.2601 28.3275 30.024 28.1968 29.7654 28.1465C29.5068 28.0963 29.2389 28.129 29 28.24L5.25 39.92V15C5.25263 14.5367 5.43784 14.0931 5.76546 13.7655C6.09309 13.4378 6.53668 13.2526 7 13.25V13.25ZM57 50.75H7C6.53668 50.7474 6.09309 50.5622 5.76546 50.2345C5.43784 49.9069 5.25263 49.4633 5.25 49V42.71L29.32 30.87L44.15 45.71C44.3887 45.9409 44.7079 46.07 45.04 46.07C45.2861 46.0685 45.5263 45.9943 45.7304 45.8569C45.9346 45.7194 46.0936 45.5248 46.1876 45.2973C46.2815 45.0699 46.3063 44.8197 46.2587 44.5783C46.2111 44.3368 46.0933 44.1148 45.92 43.94L38.06 36.07L50 25.83L58.73 34.32V49C58.7275 49.4599 58.545 49.9005 58.2217 50.2276C57.8983 50.5547 57.4598 50.7422 57 50.75V50.75Z" fill="#bbbbbb" id="id_103"></path>
<path d="M15.2899 25.3899C16.301 25.3899 17.2894 25.09 18.1299 24.528C18.9705 23.9661 19.6254 23.1674 20.0119 22.2331C20.3984 21.2988 20.499 20.2708 20.301 19.2793C20.103 18.2878 19.6154 17.3773 18.8997 16.6631C18.1841 15.9488 17.2726 15.4629 16.2807 15.2669C15.2888 15.0709 14.261 15.1735 13.3275 15.5618C12.3939 15.9501 11.5966 16.6066 11.0363 17.4482C10.476 18.2899 10.178 19.2788 10.1799 20.2899C10.1826 21.6434 10.7221 22.9406 11.6802 23.8968C12.6382 24.8529 13.9364 25.3899 15.2899 25.3899V25.3899ZM15.2899 17.6799C15.8062 17.6799 16.3108 17.833 16.74 18.1198C17.1692 18.4066 17.5037 18.8142 17.7013 19.2911C17.8988 19.768 17.9505 20.2928 17.8498 20.7991C17.7491 21.3054 17.5005 21.7705 17.1355 22.1355C16.7705 22.5005 16.3054 22.7491 15.7991 22.8498C15.2928 22.9505 14.7681 22.8988 14.2911 22.7013C13.8142 22.5037 13.4066 22.1692 13.1198 21.74C12.833 21.3108 12.6799 20.8061 12.6799 20.2899C12.6799 19.5977 12.9549 18.9338 13.4444 18.4444C13.9339 17.9549 14.5977 17.6799 15.2899 17.6799V17.6799Z" fill="#bbbbbb" id="id_104"></path>
</svg>